<svg id="Grupo_215" data-name="Grupo 215" xmlns="http://www.w3.org/2000/svg" width="138" height="138" viewBox="0 0 138 138">
  <g id="Shape" transform="translate(0 0)">
    <path id="Trazado_21" data-name="Trazado 21" d="M69,0a69,69,0,0,1,0,138H0V69A69,69,0,0,1,69,0Z" transform="translate(0 0)" fill="#f1e3cf"/>
    <path id="Trazado_22" data-name="Trazado 22" d="M41.261,96.482a41.261,41.261,0,1,1,0,82.523H0V137.744A41.261,41.261,0,0,1,41.261,96.482Z" transform="translate(0 -41.005)" fill="#212026"/>
    <path id="Trazado_23" data-name="Trazado 23" d="M88.862,45.528A42.128,42.128,0,1,1,46.734,87.656,42.128,42.128,0,0,1,88.862,45.528Z" transform="translate(-19.862 -19.349)" fill="#f32f09"/>
    <path id="Trazado_24" data-name="Trazado 24" d="M101.772,75.9A24.661,24.661,0,1,1,77.11,100.566,24.661,24.661,0,0,1,101.772,75.9Z" transform="translate(-32.772 -32.259)" fill="#212026"/>
  </g>
</svg>
