<svg xmlns="http://www.w3.org/2000/svg" width="137.994" height="137.994" viewBox="0 0 137.994 137.994">
  <g id="Grupo_216" data-name="Grupo 216" transform="translate(0 137.994) rotate(-90)">
    <path id="Shape" d="M155.716,121.769a33.947,33.947,0,1,1-33.947,33.947A33.947,33.947,0,0,1,155.716,121.769Z" transform="translate(-51.669 -51.669)" fill="#212026"/>
    <path id="Shape-2" data-name="Shape" d="M155.716.295a33.947,33.947,0,1,1-33.947,33.947A33.947,33.947,0,0,1,155.716.295Z" transform="translate(-51.669 -0.125)" fill="#f32f09"/>
    <path id="Shape-3" data-name="Shape" d="M36.6,121.769A33.947,33.947,0,1,1,2.654,155.716,33.947,33.947,0,0,1,36.6,121.769Z" transform="translate(-1.126 -51.669)" fill="#f32f09"/>
    <path id="Shape-4" data-name="Shape" d="M0,0H34.626A34.8,34.8,0,1,1,0,34.8Z" fill="#594346"/>
  </g>
</svg>
