<svg id="Grupo_22" data-name="Grupo 22" xmlns="http://www.w3.org/2000/svg" width="240" height="240" viewBox="0 0 240 240">
  <path id="Shape" d="M120,0A120,120,0,1,1,0,120,120,120,0,0,1,120,0Z" fill="#8d2f23"/>
  <path id="Shape-2" data-name="Shape" d="M120.59,48.354A72.236,72.236,0,1,1,48.354,120.59,72.237,72.237,0,0,1,120.59,48.354Z" fill="#f1e3cf"/>
  <path id="Shape-3" data-name="Shape" d="M121.769,83.145a38.624,38.624,0,1,1-38.624,38.624A38.624,38.624,0,0,1,121.769,83.145Z" fill="#f32f09"/>
  <path id="Shape-4" data-name="Shape" d="M240,94.349V240H94.349A145.651,145.651,0,0,1,240,94.349Z" fill="#571d19"/>
</svg>
