<svg xmlns="http://www.w3.org/2000/svg" width="240" height="240" viewBox="0 0 240 240">
  <g id="Grupo_25" data-name="Grupo 25" transform="translate(240 240) rotate(180)">
    <path id="Shape" d="M181.032,122.064a58.968,58.968,0,1,1-58.968,58.968A58.968,58.968,0,0,1,181.032,122.064Z" fill="#212026"/>
    <path id="Shape-2" data-name="Shape" d="M181.032,0a58.968,58.968,0,1,1-58.968,58.968A58.968,58.968,0,0,1,181.032,0Z" fill="#f32f09"/>
    <path id="Shape-3" data-name="Shape" d="M61.327,122.064A58.968,58.968,0,1,1,2.359,181.032,58.968,58.968,0,0,1,61.327,122.064Z" fill="#f32f09"/>
    <path id="Shape-4" data-name="Shape" d="M0,0H60.442A60.443,60.443,0,1,1,0,60.442Z" fill="#594346"/>
  </g>
</svg>
