<svg id="Grupo_14" data-name="Grupo 14" xmlns="http://www.w3.org/2000/svg" width="112" height="112" viewBox="0 0 112 112">
  <ellipse id="Shape" cx="47.056" cy="47.034" rx="47.056" ry="47.034" transform="translate(9.081 8.827)" fill="#fff"/>
  <path id="Shape-2" data-name="Shape" d="M176.472,0a55.656,55.656,0,0,1-55.587,55.724A55.655,55.655,0,0,1,176.472,0Z" transform="translate(-64.472 0)" fill="#212026"/>
  <path id="Shape-3" data-name="Shape" d="M54.1,0h1.623V1.619a54.035,54.035,0,0,1-54.1,53.968H0V53.968A54.035,54.035,0,0,1,54.1,0Z" transform="translate(55.587 0) rotate(90)" fill="#212026"/>
  <path id="Shape-4" data-name="Shape" d="M53.968,120.591h1.619v1.623a54.034,54.034,0,0,1-53.968,54.1H0v-1.623A54.035,54.035,0,0,1,53.968,120.591Z" transform="translate(0 -64.315)" fill="#f32f09"/>
  <path id="Shape-5" data-name="Shape" d="M54.1,0h1.623V1.619a54.035,54.035,0,0,1-54.1,53.968H0V53.968A54.035,54.035,0,0,1,54.1,0Z" transform="translate(112 56.276) rotate(90)" fill="#212026"/>
</svg>
